<?xml version="1.0" standalone="no"?>
<!DOCTYPE svg PUBLIC "-//W3C//DTD SVG 20010904//EN"
 "http://www.w3.org/TR/2001/REC-SVG-20010904/DTD/svg10.dtd">
<svg version="1.0" xmlns="http://www.w3.org/2000/svg"
 width="500.000000pt" height="500.000000pt" viewBox="0 0 500.000000 500.000000"
 preserveAspectRatio="xMidYMid meet">

<g transform="translate(0.000000,500.000000) scale(0.100000,-0.100000)"
fill="#000000" stroke="none">
<path d="M2470 3960 c0 -13 16 -14 95 -12 65 2 95 7 95 15 0 8 -29 12 -95 12
-78 0 -95 -3 -95 -15z"/>
<path d="M2566 3885 c-3 -9 0 -15 9 -15 9 0 12 6 9 15 -4 8 -7 15 -9 15 -2 0
-5 -7 -9 -15z"/>
<path d="M2646 3875 c-3 -8 -1 -15 4 -15 6 0 10 7 10 15 0 8 -2 15 -4 15 -2 0
-6 -7 -10 -15z"/>
<path d="M1160 3711 c0 -11 9 -23 21 -26 12 -4 30 -27 43 -53 21 -47 21 -53
21 -697 0 -708 0 -706 -56 -747 -58 -43 -43 -48 151 -48 147 0 180 3 180 14 0
7 -12 21 -26 31 -56 36 -59 58 -62 448 l-3 359 223 -5 c127 -2 239 -9 259 -16
57 -18 102 -53 127 -99 13 -23 28 -42 33 -42 5 0 9 74 9 175 0 189 -8 212 -44
134 -21 -47 -72 -84 -136 -98 -25 -6 -141 -11 -257 -11 l-213 0 0 330 0 330
238 0 c131 0 265 -5 298 -11 97 -18 168 -64 226 -149 16 -24 17 -21 17 88 l1
112 -525 0 c-512 0 -525 0 -525 -19z"/>
<path d="M2567 3700 c-38 -17 -75 -30 -83 -30 -8 0 -14 -8 -14 -19 0 -17 5
-16 58 9 31 15 74 33 95 41 36 13 50 29 25 29 -7 -1 -44 -14 -81 -30z"/>
<path d="M2470 3550 c0 -13 16 -14 95 -12 65 2 95 7 95 15 0 8 -29 12 -95 12
-78 0 -95 -3 -95 -15z"/>
<path d="M2573 3484 c-8 -22 -43 -33 -73 -23 l-25 9 24 -20 c13 -11 29 -20 36
-20 14 0 39 27 48 53 8 21 -1 23 -10 1z"/>
<path d="M2645 3491 c-3 -6 -18 -11 -33 -11 -24 0 -25 -2 -11 -15 17 -18 44
-11 53 12 8 19 1 29 -9 14z"/>
<path d="M2470 3343 c0 -10 26 -13 95 -13 69 0 95 3 95 13 0 9 -26 12 -95 12
-69 0 -95 -3 -95 -12z"/>
<path d="M2470 3260 c0 -5 5 -10 11 -10 5 0 7 5 4 10 -3 6 -8 10 -11 10 -2 0
-4 -4 -4 -10z"/>
<path d="M2558 3161 c-50 -20 -88 -42 -88 -50 0 -7 6 -11 13 -8 6 3 46 20 87
37 79 34 97 45 83 52 -4 3 -47 -12 -95 -31z"/>
<path d="M2561 2968 c-56 -44 -87 -74 -78 -76 9 -2 51 25 94 59 43 35 80 64
82 65 1 2 1 8 -1 14 -2 6 -45 -22 -97 -62z"/>
<path d="M2470 3020 c0 -5 7 -7 15 -4 8 4 15 8 15 10 0 2 -7 4 -15 4 -8 0 -15
-4 -15 -10z"/>
<path d="M2640 2900 c-13 -8 -12 -10 3 -10 9 0 17 5 17 10 0 12 -1 12 -20 0z"/>
<path d="M3285 2903 c-125 -16 -265 -63 -367 -124 l-68 -40 0 -46 0 -45 65 60
c123 116 285 170 475 159 119 -7 236 -43 318 -97 70 -47 164 -145 192 -201 11
-21 25 -39 30 -39 11 0 14 188 4 239 -8 38 -46 60 -155 91 -148 41 -362 60
-494 43z"/>
<path d="M2470 2820 c0 -5 5 -10 11 -10 5 0 7 5 4 10 -3 6 -8 10 -11 10 -2 0
-4 -4 -4 -10z"/>
<path d="M2558 2721 c-50 -20 -88 -42 -88 -50 0 -7 6 -11 13 -8 6 3 46 20 87
37 79 34 97 45 83 52 -4 3 -47 -12 -95 -31z"/>
<path d="M2524 2490 c-26 -10 -54 -48 -54 -70 1 -9 7 -4 15 12 27 48 101 58
150 20 11 -9 9 -5 -5 11 -28 29 -73 41 -106 27z"/>
<path d="M2650 2380 c0 -7 -7 -22 -17 -32 -15 -17 -15 -18 0 -18 17 0 35 45
23 57 -3 4 -6 0 -6 -7z"/>
<path d="M2470 2364 c0 -13 18 -39 24 -34 2 3 -2 14 -10 24 -8 11 -14 16 -14
10z"/>
<path d="M2470 2233 c0 -10 26 -13 95 -13 69 0 95 3 95 13 0 9 -26 12 -95 12
-69 0 -95 -3 -95 -12z"/>
<path d="M2470 2110 c0 -12 17 -15 95 -15 78 0 95 3 95 15 0 12 -17 15 -95 15
-78 0 -95 -3 -95 -15z"/>
<path d="M2524 2010 c-25 -10 -54 -47 -54 -69 0 -8 9 -3 21 12 30 39 88 54
128 34 41 -20 40 -12 -1 13 -35 21 -60 24 -94 10z"/>
<path d="M2646 1907 c-8 -35 -64 -61 -115 -54 -38 5 -40 4 -24 -9 33 -24 91
-17 124 15 16 16 29 39 29 50 0 28 -6 27 -14 -2z"/>
<path d="M2470 1733 c0 -10 26 -13 95 -13 69 0 95 3 95 13 0 9 -26 12 -95 12
-69 0 -95 -3 -95 -12z"/>
<path d="M3922 1626 c-112 -220 -336 -327 -593 -284 -52 9 -120 26 -152 38
-92 35 -203 115 -266 192 l-56 69 -3 -102 c-1 -57 -1 -108 2 -115 8 -21 132
-74 234 -100 179 -46 434 -43 636 7 81 21 206 65 218 77 11 12 40 284 31 293
-4 4 -27 -29 -51 -75z"/>
<path d="M2553 1679 c-5 -5 -25 -18 -43 -27 -19 -9 -35 -22 -37 -29 -5 -16 69
22 85 44 6 9 12 12 12 5 0 -6 12 -19 26 -29 26 -16 27 -16 45 6 25 31 24 46
-1 21 -25 -25 -35 -25 -58 0 -13 14 -21 17 -29 9z"/>
<path d="M2470 1550 c0 -5 5 -10 11 -10 5 0 7 5 4 10 -3 6 -8 10 -11 10 -2 0
-4 -4 -4 -10z"/>
<path d="M2560 1455 c-41 -18 -78 -31 -82 -28 -5 2 -8 -6 -8 -18 0 -16 3 -19
13 -12 6 5 49 25 95 43 45 19 82 37 82 42 0 13 -21 8 -100 -27z"/>
<path d="M2470 1310 c0 -13 16 -14 95 -12 65 2 95 7 95 15 0 8 -29 12 -95 12
-78 0 -95 -3 -95 -15z"/>
<path d="M2470 1222 c0 -14 6 -22 16 -22 14 0 15 3 3 18 -7 9 -15 19 -16 21
-2 2 -3 -5 -3 -17z"/>
<path d="M2560 1230 c0 -5 7 -10 16 -10 8 0 12 5 9 10 -3 6 -10 10 -16 10 -5
0 -9 -4 -9 -10z"/>
<path d="M2646 1225 c-3 -8 -1 -15 4 -15 6 0 10 7 10 15 0 8 -2 15 -4 15 -2 0
-6 -7 -10 -15z"/>
<path d="M2475 1109 c-10 -29 -3 -31 18 -3 15 20 15 24 3 24 -8 0 -18 -9 -21
-21z"/>
<path d="M2572 1099 c-32 -58 -54 -81 -73 -76 -11 3 -17 1 -13 -4 3 -5 18 -9
34 -9 26 0 33 7 56 51 22 44 29 50 50 46 19 -3 22 -2 13 9 -19 24 -49 16 -67
-17z"/>
<path d="M2650 1047 c0 -9 -8 -21 -17 -26 -16 -9 -17 -10 -1 -11 17 0 35 36
24 47 -3 4 -6 -1 -6 -10z"/>
</g>
</svg>
